PathFileType	4	(X/Y/Z)	TYPE-2_1685523821198
DataRate	CameraRate	NumFrames	NumMarkers	Units	OrigDataRate	OrigDataStartFrame	OrigNumFrames
60.00	60.00	       8	13	mm  	60.00	86	       199
Frame#	Time	H			R			B			RF			RK			RB			RA			RD			LF			LK			LB			LA			LD			
		X1	Y1	Z1	X2	Y2	Z2	X3	Y3	Z3	X4	Y4	Z4	X5	Y5	Z5	X6	Y6	Z6	X7	Y7	Z7	X8	Y8	Z8	X9	Y9	Z9	X10	Y10	Z10	X11	Y11	Z11	X12	Y12	Z12	X13	Y13	Z13	
86	1.416667	509.328952	832.309905	-187.348972	733.713963	824.468942	-116.780303	681.162827	823.968455	-364.354547	785.597784	522.842101	-17.183388	852.829873	425.080304	-85.750109	962.269700	145.808550	-66.064286	1021.327168	68.900379	-119.449567	1103.907525	123.119806	-130.627111	454.108551	514.500651	-395.551571	431.086149	427.082253	-333.491181	225.886473	195.189936	-318.309741	198.026029	115.612500	-268.094211	296.455142	69.067208	-259.252274	
87	1.433333	539.358173	829.473812	-189.350921	764.076842	822.633823	-117.113961	710.191074	820.298217	-364.354547	820.631875	523.676246	-16.682900	887.697135	424.246159	-87.251570	983.456984	139.469048	-69.234037	1037.843239	59.724784	-122.952977	1121.758229	109.106169	-135.631981	478.799244	514.333822	-396.552545	453.774893	427.749569	-334.158497	239.900109	205.032847	-321.646321	205.199676	125.121754	-269.262014	302.627815	71.235985	-262.088367	
88	1.450000	570.221539	827.471864	-188.850434	794.606550	821.632849	-116.947132	740.887611	817.628953	-363.854060	853.330360	524.677220	-16.682900	920.395620	422.911527	-87.918886	1005.478412	133.630033	-70.068182	1051.523218	50.882846	-128.124676	1139.608932	94.758875	-139.469048	505.825543	514.333822	-398.554493	479.466560	426.581765	-335.326300	255.915693	215.042587	-324.816073	218.379167	137.133442	-272.431765	309.300975	71.736472	-263.756657	
89	1.466667	600.584418	826.137232	-189.350921	824.635771	821.466020	-116.112987	772.918780	815.960663	-363.520402	883.025923	524.176733	-17.517046	950.925328	421.076408	-87.752057	1028.000328	131.461256	-72.403788	1066.370999	49.548214	-128.458334	1157.960123	80.578409	-140.470022	536.855738	512.999190	-400.556441	508.828465	423.912501	-339.163367	274.600542	225.052328	-327.652166	233.060120	148.644643	-274.767371	316.474622	71.903301	-265.258118	
90	1.483333	630.780467	825.636745	-189.684579	853.830847	822.466994	-114.945184	805.116778	814.626031	-363.353573	911.386854	523.342588	-18.518020	981.955523	428.416885	-85.416451	1047.852980	132.962717	-72.737446	1079.216833	47.713095	-127.457360	1170.138640	68.233063	-140.470022	570.054710	509.495781	-402.391560	542.861582	419.741776	-345.169211	296.955629	235.562555	-330.321430	251.077652	161.156819	-278.270780	325.483389	73.404762	-266.759579	
91	1.500000	660.809688	826.137232	-190.018237	882.358607	824.802600	-113.944210	836.981118	812.624083	-363.019915	940.415101	523.676246	-19.518994	1018.991562	433.254926	-85.583280	1063.034419	134.964665	-70.401840	1080.551465	49.214556	-126.956873	1177.145458	60.558929	-140.970509	607.424407	504.324082	-405.561311	581.065424	414.236419	-352.509687	322.480466	246.072782	-333.824839	273.599568	175.170455	-282.441505	337.661906	77.241829	-269.929330	
92	1.516667	690.004764	826.304061	-191.352869	910.385880	827.805522	-111.942262	867.510825	809.787990	-360.016993	981.621865	538.357199	-11.678030	1052.691021	435.590532	-82.914015	1074.045133	135.298323	-69.400866	1089.393402	47.379437	-127.791018	1181.983500	57.055520	-141.637825	648.798000	497.984580	-411.066668	622.939504	407.563259	-360.016993	357.681386	254.247403	-340.331170	299.958551	191.352869	-286.945888	354.011148	84.248647	-273.432739	
93	1.533333	717.531550	826.137232	-193.855304	936.911691	831.475760	-109.439827	897.873704	806.785068	-356.513583	1003.476464	537.022567	-8.841937	1075.880252	436.591506	-81.245725	1082.052926	134.130520	-71.736472	1089.893889	47.379437	-128.458334	1184.319106	55.887717	-142.638799	693.508173	490.310445	-417.572999	667.983336	400.055954	-367.524298	395.718400	263.589828	-346.003356	335.493129	205.866992	-290.616127	376.699893	93.924730	-275.267858	
